{"title":"Into The Abyss 2011 DVDSCR XViD DTRG","uid":7104692,"size":1162899270,"categoryP":"video","categoryS":"movies","magnet":"?xt=urn:btih:bfb8b4217d144b914093f749830f16505e4d8467&amp;dn=Into+The+Abyss+2011+DVDSCR+XViD+DTRG&amp;tr=udp%3A%2F%2Ftracker.openbittorrent.com%3A80&amp;tr=udp%3A%2F%2Fopen.demonii.com%3A1337&amp;tr=udp%3A%2F%2Ftracker.coppersurfer.tk%3A6969&amp;tr=udp%3A%2F%2Fexodus.desync.com%3A6969","seeders":2,"leechers":0,"uploader":"HeroMaster","files":-1,"time":1331827807,"description":"Into The Abyss 2011 DVDSCR XViD DTRG\n\nFormat : AVI\nFormat/Info : Audio Video Interleave\nFile size : 1.05 GiB\nDuration : 1h 48mn\nOverall bit rate : 1 377 Kbps\nWriting application : VirtualDubMod 1.5.10.2 (build 2540/release)\nWriting library : VirtualDubMod build 2540/release\n\nVideo\nID : 0\nFormat : MPEG-4 Visual\nFormat profile : Advanced Simple@L5\nFormat settings, BVOP : 2\nFormat settings, QPel : No\nFormat settings, GMC : No warppoints\nFormat settings, Matrix : Default (H.263)\nMuxing mode : Packed bitstream\nCodec ID : XVID\nCodec ID/Hint : XviD\nDuration : 1h 48mn\nBit rate : 1 173 Kbps\nWidth : 720 pixels\nHeight : 400 pixels\nDisplay aspect ratio : 16:9\nFrame rate : 29.970 fps\nColor space : YUV\nChroma subsampling : 4:2:0\nBit depth : 8 bits\nScan type : Progressive\nCompression mode : Lossy\nBits/(Pixel*Frame) : 0.136\nStream size : 912 MiB (85%)\nWriting library : XviD 64\n\nAudio\nID : 1\nFormat : AC-3\nFormat/Info : Audio Coding 3\nMode extension : CM (complete main)\nCodec ID : 2000\nDuration : 1h 48mn\nBit rate mode : Constant\nBit rate : 192 Kbps\nChannel(s) : 2 channels\nChannel positions : Front: L R\nSampling rate : 48.0 KHz\nBit depth : 16 bits\nCompression mode : Lossy\nStream size : 149 MiB (14%)\nAlignment : Split accross interleaves\nInterleave, duration : 33 ms (1.00 video frame)\nInterleave, preload duration : 500 ms\n\n &lt;a href=&quot;\nhttp://www.imdb.com/title/tt1972663/&quot; rel=&quot;nofollow&quot; target=&quot;_NEW&quot;&gt;\nhttp://www.imdb.com/title/tt1972663/&lt;/a&gt;\n\n\nSource Used:\n\nINTO_THE_ABYSS-2011-DVDSCR MKV............Thanks\n\nWas a badly interlaced wrong sized mkv file so thought damn n blasted it have a \ngo at sorting it ..........\n\n\nPoster:\n\n &lt;a href=&quot;\nhttp://i.imgur.com/5syy6.jpg&quot; rel=&quot;nofollow&quot; target=&quot;_NEW&quot;&gt;\nhttp://i.imgur.com/5syy6.jpg&lt;/a&gt;\n\n\nScreenshots:\n\n &lt;a href=&quot;\nhttp://i.imgur.com/3XDTG.jpg&quot; rel=&quot;nofollow&quot; target=&quot;_NEW&quot;&gt;\nhttp://i.imgur.com/3XDTG.jpg&lt;/a&gt;\n\n\nENJOY!","torrent":{"xt":"urn:btih:bfb8b4217d144b914093f749830f16505e4d8467","amp;dn":"Into+The+Abyss+2011+DVDSCR+XViD+DTRG","amp;tr":["udp%3A%2F%2Ftracker.openbittorrent.com%3A80","udp%3A%2F%2Fopen.demonii.com%3A1337","udp%3A%2F%2Ftracker.coppersurfer.tk%3A6969","udp%3A%2F%2Fexodus.desync.com%3A6969"],"infoHash":"bfb8b4217d144b914093f749830f16505e4d8467","infoHashBuffer":{"type":"Buffer","data":[191,184,180,33,125,20,75,145,64,147,247,73,131,15,22,80,94,77,132,103]},"announce":[],"urlList":[]}}